<svg width="20" height="26" viewBox="0 0 20 26" fill="none" xmlns="http://www.w3.org/2000/svg">
<path d="M18.2 9.193L17.8 21.3C17.766 22.3369 17.3292 23.3197 16.5823 24.0398C15.8355 24.7599 14.8375 25.1607 13.8 25.157H6.20003C5.16325 25.1607 4.16578 24.7605 3.41907 24.0413C2.67236 23.322 2.23512 22.3402 2.20003 21.304L1.80003 9.193C1.79128 8.92778 1.88824 8.66995 2.06959 8.47623C2.25093 8.2825 2.50181 8.16875 2.76703 8.16C3.03224 8.15125 3.29007 8.24821 3.4838 8.42956C3.67752 8.61091 3.79128 8.86178 3.80003 9.127L4.20003 21.237C4.21995 21.754 4.43942 22.2431 4.81236 22.6017C5.18529 22.9603 5.68267 23.1604 6.20003 23.16H13.8C14.318 23.1603 14.816 22.9597 15.189 22.6003C15.5621 22.2408 15.7811 21.7507 15.8 21.233L16.2 9.127C16.2088 8.86178 16.3225 8.61091 16.5163 8.42956C16.71 8.24821 16.9678 8.15125 17.233 8.16C17.4982 8.16875 17.7491 8.2825 17.9305 8.47623C18.1118 8.66995 18.2088 8.92778 18.2 9.193ZM19.523 5.164C19.523 5.42922 19.4177 5.68357 19.2301 5.87111C19.0426 6.05864 18.7882 6.164 18.523 6.164H1.47803C1.21281 6.164 0.958457 6.05864 0.77092 5.87111C0.583384 5.68357 0.478027 5.42922 0.478027 5.164C0.478027 4.89878 0.583384 4.64443 0.77092 4.45689C0.958457 4.26936 1.21281 4.164 1.47803 4.164H4.57803C4.89488 4.16485 5.20071 4.04779 5.43601 3.8356C5.67131 3.6234 5.81924 3.33125 5.85103 3.016C5.92482 2.27649 6.27129 1.59093 6.82292 1.09291C7.37456 0.594884 8.09184 0.320067 8.83503 0.322H11.165C11.9082 0.320067 12.6255 0.594884 13.1771 1.09291C13.7288 1.59093 14.0752 2.27649 14.149 3.016C14.1808 3.33125 14.3287 3.6234 14.564 3.8356C14.7993 4.04779 15.1052 4.16485 15.422 4.164H18.522C18.7872 4.164 19.0416 4.26936 19.2291 4.45689C19.4167 4.64443 19.522 4.89878 19.522 5.164H19.523ZM7.58703 4.164H12.415C12.2836 3.86374 12.1977 3.54558 12.16 3.22C12.1353 2.97351 12.0199 2.74499 11.8362 2.57871C11.6526 2.41244 11.4138 2.32024 11.166 2.32H8.83603C8.58829 2.32024 8.34947 2.41244 8.16583 2.57871C7.98219 2.74499 7.8668 2.97351 7.84203 3.22C7.80406 3.54564 7.71878 3.8638 7.58703 4.164ZM8.59403 19.315V10.8C8.59403 10.5348 8.48867 10.2804 8.30113 10.0929C8.1136 9.90536 7.85924 9.8 7.59403 9.8C7.32881 9.8 7.07446 9.90536 6.88692 10.0929C6.69938 10.2804 6.59403 10.5348 6.59403 10.8V19.319C6.59403 19.5842 6.69938 19.8386 6.88692 20.0261C7.07446 20.2136 7.32881 20.319 7.59403 20.319C7.85924 20.319 8.1136 20.2136 8.30113 20.0261C8.48867 19.8386 8.59403 19.5842 8.59403 19.319V19.315ZM13.408 19.315V10.8C13.408 10.5348 13.3027 10.2804 13.1151 10.0929C12.9276 9.90536 12.6732 9.8 12.408 9.8C12.1428 9.8 11.8885 9.90536 11.7009 10.0929C11.5134 10.2804 11.408 10.5348 11.408 10.8V19.319C11.408 19.5842 11.5134 19.8386 11.7009 20.0261C11.8885 20.2136 12.1428 20.319 12.408 20.319C12.6732 20.319 12.9276 20.2136 13.1151 20.0261C13.3027 19.8386 13.408 19.5842 13.408 19.319V19.315Z" fill="black"/>
</svg>
