<svg width="17" height="17" viewBox="0 0 17 17" fill="none" xmlns="http://www.w3.org/2000/svg">
<g clip-path="url(#clip0_46_11)">
<path d="M4.9796 0.0596606C4.0752 0.102331 3.45759 0.246661 2.91767 0.458821C2.35888 0.676591 1.88526 0.968821 1.41402 1.44176C0.94278 1.9147 0.65259 2.38866 0.43635 2.9483C0.22708 3.48941 0.0853004 4.10753 0.0453504 5.01244C0.00540038 5.91735 -0.00343962 6.20822 0.000980377 8.51648C0.00540038 10.8247 0.0156004 11.1141 0.0594604 12.0209C0.10264 12.9251 0.24646 13.5425 0.45862 14.0826C0.67673 14.6414 0.96862 15.1149 1.44173 15.5863C1.91484 16.0577 2.38846 16.3472 2.94946 16.5638C3.49006 16.7727 4.10835 16.9152 5.01309 16.9548C5.91783 16.9944 6.20904 17.0036 8.51662 16.9991C10.8242 16.9947 11.1147 16.9845 12.0213 16.9415C12.928 16.8985 13.5422 16.7537 14.0824 16.5425C14.6412 16.3239 15.115 16.0325 15.5861 15.5592C16.0571 15.086 16.3472 14.6117 16.5632 14.0517C16.7727 13.5111 16.915 12.8928 16.9542 11.9887C16.9938 11.0814 17.0032 10.7918 16.9988 8.48384C16.9944 6.17592 16.984 5.88658 16.941 4.98014C16.898 4.0737 16.754 3.45813 16.542 2.9177C16.3235 2.35891 16.032 1.8858 15.559 1.41405C15.0861 0.942301 14.6115 0.652451 14.0517 0.436891C13.5107 0.227621 12.8928 0.0849906 11.988 0.0458906C11.0833 0.0067906 10.7921 -0.00323941 8.48364 0.00118059C6.17521 0.00560059 5.88621 0.0154606 4.9796 0.0596606ZM5.07888 15.4256C4.25013 15.3896 3.80014 15.2519 3.50026 15.1366C3.10314 14.9836 2.82026 14.7987 2.5214 14.5027C2.22254 14.2067 2.03894 13.9228 1.8839 13.5266C1.76745 13.2267 1.6272 12.7772 1.58844 11.9484C1.54628 11.0527 1.53744 10.7838 1.53251 8.51444C1.52758 6.24511 1.53625 5.97651 1.57552 5.08044C1.61088 4.25237 1.74943 3.80187 1.86452 3.50216C2.01752 3.10453 2.2018 2.82216 2.49845 2.52347C2.7951 2.22478 3.07815 2.04084 3.47476 1.8858C3.7743 1.76884 4.22378 1.62978 5.05219 1.59034C5.9486 1.54784 6.2172 1.53934 8.48619 1.53441C10.7552 1.52948 11.0245 1.53798 11.9212 1.57742C12.7493 1.61346 13.2 1.75065 13.4993 1.86642C13.8966 2.01942 14.1793 2.20319 14.478 2.50035C14.7767 2.79751 14.9608 3.07954 15.1159 3.477C15.233 3.77569 15.372 4.225 15.4111 5.05392C15.4538 5.95033 15.4635 6.2191 15.4676 8.48792C15.4717 10.7567 15.4637 11.0262 15.4244 11.9219C15.3882 12.7507 15.2508 13.2008 15.1354 13.5011C14.9824 13.898 14.798 14.1811 14.5011 14.4796C14.2043 14.7781 13.9216 14.962 13.5248 15.1171C13.2256 15.2339 12.7756 15.3733 11.9479 15.4127C11.0515 15.4549 10.7829 15.4637 8.51305 15.4686C6.24321 15.4736 5.97546 15.4644 5.07905 15.4256M12.0083 3.95725C12.0086 4.159 12.0687 4.35612 12.1811 4.52368C12.2935 4.69124 12.453 4.82171 12.6396 4.89859C12.8261 4.97547 13.0312 4.99531 13.229 4.95559C13.4268 4.91588 13.6084 4.8184 13.7508 4.67547C13.8932 4.53255 13.99 4.35061 14.029 4.15267C14.068 3.95472 14.0474 3.74965 13.9699 3.56341C13.8923 3.37716 13.7612 3.2181 13.5933 3.10634C13.4253 2.99458 13.228 2.93515 13.0262 2.93555C12.7557 2.93609 12.4966 3.04403 12.3057 3.23562C12.1148 3.42722 12.0078 3.68679 12.0083 3.95725ZM4.13555 8.50866C4.14031 10.9193 6.09803 12.869 8.50812 12.8644C10.9182 12.8598 12.8693 10.9023 12.8647 8.49166C12.8601 6.08106 10.9019 4.13082 8.49146 4.13558C6.08103 4.14034 4.13096 6.0984 4.13555 8.50866ZM5.66657 8.5056C5.66546 7.94521 5.83055 7.39708 6.14097 6.93051C6.45138 6.46395 6.89318 6.09991 7.41049 5.88444C7.92779 5.66896 8.49738 5.61172 9.04722 5.71996C9.59706 5.8282 10.1025 6.09705 10.4995 6.49253C10.8965 6.888 11.1674 7.39232 11.2778 7.94173C11.3882 8.49113 11.3332 9.06094 11.1198 9.5791C10.9064 10.0973 10.5441 10.5405 10.0788 10.8528C9.61344 11.165 9.06596 11.3323 8.50557 11.3334C8.13347 11.3342 7.76486 11.2616 7.4208 11.1199C7.07673 10.9782 6.76395 10.7702 6.50032 10.5076C6.23668 10.245 6.02736 9.93302 5.8843 9.58952C5.74125 9.24602 5.66726 8.8777 5.66657 8.5056Z" fill="#F2F2F2"/>
</g>
<defs>
<clipPath id="clip0_46_11">
<rect width="17" height="17" fill="white"/>
</clipPath>
</defs>
</svg>
