<svg width="20" height="15" viewBox="0 0 20 15" fill="none" xmlns="http://www.w3.org/2000/svg">
<g clip-path="url(#clip0_46_16)">
<path d="M19.582 2.68614C19.352 1.8256 18.6744 1.14795 17.8139 0.917968C16.2542 0.5 10 0.499999 10 0.499999C10 0.499999 3.74583 0.5 2.18612 0.917968C1.32564 1.14795 0.647904 1.8256 0.417924 2.68614C0 4.24582 0 7.5 0 7.5C0 7.5 0 10.7541 0.417924 12.314C0.647904 13.1744 1.32564 13.852 2.18612 14.0821C3.74583 14.5 10 14.5 10 14.5C10 14.5 16.2542 14.5 17.8139 14.0821C18.6744 13.852 19.352 13.1744 19.582 12.314C20 10.7541 20 7.5 20 7.5C20 7.5 20 4.24582 19.582 2.68614Z" fill="#F2F2F2"/>
<path d="M7.95454 10.4545L13.1818 7.50013L7.95454 4.54546V10.4545Z" fill="#121215"/>
</g>
<defs>
<clipPath id="clip0_46_16">
<rect width="20" height="14" fill="white" transform="translate(0 0.5)"/>
</clipPath>
</defs>
</svg>
